<svg xmlns="http://www.w3.org/2000/svg" width="640" height="800" viewBox="80 150 640 800"><defs><linearGradient id="body" x1="0" y1="0" x2="1" y2="0"><stop offset="0%" stop-color="#0e0f11"/><stop offset="12%" stop-color="#26282d"/><stop offset="30%" stop-color="#3a3d44"/><stop offset="52%" stop-color="#1d1f23"/><stop offset="84%" stop-color="#131417"/><stop offset="100%" stop-color="#0a0b0c"/></linearGradient><linearGradient id="acc" x1="0" y1="0" x2="1" y2="0"><stop offset="0%" stop-color="#7d3022"/><stop offset="16%" stop-color="#cd4e37"/><stop offset="34%" stop-color="#ec8673"/><stop offset="56%" stop-color="#E4573D"/><stop offset="86%" stop-color="#a03d2b"/><stop offset="100%" stop-color="#722c1e"/></linearGradient><linearGradient id="cap" x1="0" y1="0" x2="1" y2="0"><stop offset="0%" stop-color="#0e0f11"/><stop offset="12%" stop-color="#26282d"/><stop offset="30%" stop-color="#3a3d44"/><stop offset="52%" stop-color="#1d1f23"/><stop offset="84%" stop-color="#131417"/><stop offset="100%" stop-color="#0a0b0c"/></linearGradient><linearGradient id="spec" x1="0" y1="0" x2="1" y2="0"><stop offset="0" stop-color="#fff" stop-opacity="0"/><stop offset=".5" stop-color="#fff" stop-opacity=".32"/><stop offset="1" stop-color="#fff" stop-opacity="0"/></linearGradient><linearGradient id="ao" x1="0" y1="0" x2="0" y2="1"><stop offset=".7" stop-color="#000" stop-opacity="0"/><stop offset="1" stop-color="#000" stop-opacity=".35"/></linearGradient><filter id="blur" x="-30%" y="-80%" width="160%" height="260%"><feGaussianBlur stdDeviation="16"/></filter></defs><ellipse cx="400" cy="900" rx="195" ry="26" fill="#000" opacity=".26" filter="url(#blur)"/><path d="M238 402 Q238 338 330 322 L470 322 Q562 338 562 402 Z" fill="url(#body)"/><rect x="238" y="372" width="324" height="508" rx="34" fill="url(#body)"/><clipPath id="clip"><rect x="238" y="372" width="324" height="508" rx="34"/></clipPath><g clip-path="url(#clip)"><rect x="238" y="448" width="324" height="370" fill="#15161a" opacity="0.72"/><rect x="238" y="448" width="324" height="12" fill="url(#acc)"/><rect x="238" y="806" width="324" height="12" fill="url(#acc)"/><text x="400" y="506" text-anchor="middle" font-family="'Consolas', 'Menlo', 'Courier New', monospace" font-weight="700" font-size="26" letter-spacing="12" fill="#ffffff" >PEAKR</text><path d="M387 519 l13 8 l13 -8" fill="none" stroke="#E4573D" stroke-width="4" stroke-linecap="round" stroke-linejoin="round"/><text x="400" y="608" text-anchor="middle" font-family="Impact, Haettenschweiler, 'Arial Narrow Bold', 'Arial Black', sans-serif" font-size="80" fill="#ffffff" textLength="240" lengthAdjust="spacingAndGlyphs" >THERMO</text><text x="400" y="676" text-anchor="middle" font-family="Impact, Haettenschweiler, 'Arial Narrow Bold', 'Arial Black', sans-serif" font-size="65" fill="#E4573D" textLength="268" lengthAdjust="spacingAndGlyphs" >FAT BURNER</text><text x="400" y="738" text-anchor="middle" font-family="'Consolas', 'Menlo', 'Courier New', monospace" font-weight="700" font-size="19" letter-spacing="3" fill="#c9ced4" textLength="264" lengthAdjust="spacingAndGlyphs">GREEN TEA · L-CARNITINE</text><text x="400" y="784" text-anchor="middle" font-family="'Consolas', 'Menlo', 'Courier New', monospace" font-weight="700" font-size="17" letter-spacing="3" fill="#c9ced4" >90 CAPSULES</text><rect x="278" y="372" width="64" height="508" fill="url(#spec)"/><rect x="238" y="372" width="324" height="508" fill="url(#ao)"/></g><rect x="320" y="286" width="160" height="40" fill="url(#body)"/><rect x="296" y="196" width="208" height="104" rx="16" fill="url(#acc)"/><rect x="306" y="208" width="3" height="82" fill="#000" opacity="0.22"/><rect x="318" y="208" width="3" height="82" fill="#000" opacity="0.22"/><rect x="330" y="208" width="3" height="82" fill="#000" opacity="0.22"/><rect x="342" y="208" width="3" height="82" fill="#000" opacity="0.22"/><rect x="354" y="208" width="3" height="82" fill="#000" opacity="0.22"/><rect x="366" y="208" width="3" height="82" fill="#000" opacity="0.22"/><rect x="378" y="208" width="3" height="82" fill="#000" opacity="0.22"/><rect x="390" y="208" width="3" height="82" fill="#000" opacity="0.22"/><rect x="402" y="208" width="3" height="82" fill="#000" opacity="0.22"/><rect x="414" y="208" width="3" height="82" fill="#000" opacity="0.22"/><rect x="426" y="208" width="3" height="82" fill="#000" opacity="0.22"/><rect x="438" y="208" width="3" height="82" fill="#000" opacity="0.22"/><rect x="450" y="208" width="3" height="82" fill="#000" opacity="0.22"/><rect x="462" y="208" width="3" height="82" fill="#000" opacity="0.22"/><rect x="474" y="208" width="3" height="82" fill="#000" opacity="0.22"/><rect x="486" y="208" width="3" height="82" fill="#000" opacity="0.22"/><rect x="296" y="196" width="208" height="12" rx="6" fill="#fff" opacity=".2"/><rect x="330" y="196" width="46" height="104" fill="url(#spec)" opacity=".7"/></svg>